<svg width="14" height="13" viewBox="0 0 14 13" fill="none" xmlns="http://www.w3.org/2000/svg">
<path d="M5.15789 9.38889V3.61111C5.15789 3.22802 5.31316 2.86062 5.58953 2.58973C5.8659 2.31885 6.24073 2.16667 6.63158 2.16667H13.2632V1.44444C13.2632 0.65 12.6 0 11.7895 0H1.47368C1.08284 0 0.708001 0.152182 0.431632 0.423068C0.155263 0.693954 0 1.06135 0 1.44444V11.5556C0 11.9386 0.155263 12.306 0.431632 12.5769C0.708001 12.8478 1.08284 13 1.47368 13H11.7895C12.6 13 13.2632 12.35 13.2632 11.5556V10.8333H6.63158C6.24073 10.8333 5.8659 10.6812 5.58953 10.4103C5.31316 10.1394 5.15789 9.77198 5.15789 9.38889V9.38889ZM7.36842 3.61111C6.96316 3.61111 6.63158 3.93611 6.63158 4.33333V8.66667C6.63158 9.06389 6.96316 9.38889 7.36842 9.38889H14V3.61111H7.36842ZM9.57895 7.58333C8.96737 7.58333 8.47368 7.09944 8.47368 6.5C8.47368 5.90056 8.96737 5.41667 9.57895 5.41667C10.1905 5.41667 10.6842 5.90056 10.6842 6.5C10.6842 7.09944 10.1905 7.58333 9.57895 7.58333Z" fill="white"/>
</svg>
