<svg width="18" height="13" viewBox="0 0 18 13" fill="none" xmlns="http://www.w3.org/2000/svg">
<path d="M4.8 0C2.82 0 1.2 1.95 1.2 4.33333C1.2 5.76622 1.7862 7.04167 2.6814 7.83178C1.0992 8.77644 0 10.7351 0 13H1.2C1.2 10.5993 2.8056 8.66667 4.8 8.66667C6.7944 8.66667 8.4 10.5993 8.4 13H9.6C9.6 10.5993 11.2056 8.66667 13.2 8.66667C15.1944 8.66667 16.8 10.5993 16.8 13H18C18 10.7344 16.9008 8.77644 15.3186 7.83178C15.7767 7.42997 16.1496 6.90376 16.407 6.29588C16.6644 5.68801 16.7991 5.01562 16.8 4.33333C16.8 1.95 15.18 0 13.2 0C11.22 0 9.6 1.95 9.6 4.33333C9.6 5.76622 10.1862 7.04167 11.0814 7.83178C10.2048 8.35058 9.47913 9.17668 9 10.2014C8.52087 9.17668 7.79524 8.35058 6.9186 7.83178C7.3767 7.42997 7.7496 6.90376 8.00701 6.29588C8.26441 5.68801 8.39905 5.01562 8.4 4.33333C8.4 1.95 6.78 0 4.8 0ZM4.8 1.44444C6.1338 1.44444 7.2 2.72783 7.2 4.33333C7.2 5.93883 6.1338 7.22222 4.8 7.22222C3.4662 7.22222 2.4 5.93883 2.4 4.33333C2.4 2.72783 3.4662 1.44444 4.8 1.44444ZM13.2 1.44444C14.5338 1.44444 15.6 2.72783 15.6 4.33333C15.6 5.93883 14.5338 7.22222 13.2 7.22222C11.8662 7.22222 10.8 5.93883 10.8 4.33333C10.8 2.72783 11.8662 1.44444 13.2 1.44444Z" fill="white"/>
</svg>
