<svg width="12" height="12" viewBox="0 0 12 12" fill="none" xmlns="http://www.w3.org/2000/svg">
<path d="M10.9429 2.768C10.9005 2.68722 10.8368 2.61957 10.7587 2.57234C10.6806 2.52511 10.5912 2.5001 10.4999 2.5H1.49991C1.40883 2.50038 1.31958 2.52557 1.24175 2.57288C1.16392 2.62019 1.10046 2.68782 1.05819 2.7685C1.01592 2.84917 0.99645 2.93985 1.00186 3.03077C1.00727 3.12168 1.03737 3.20941 1.08891 3.2845L5.58891 9.7845C5.63478 9.85112 5.69615 9.90559 5.76775 9.94322C5.83935 9.98085 5.91902 10.0005 5.99991 10.0005C6.08079 10.0005 6.16046 9.98085 6.23206 9.94322C6.30366 9.90559 6.36504 9.85112 6.41091 9.7845L10.9109 3.2845C10.9629 3.20956 10.9935 3.12179 10.9991 3.03072C11.0047 2.93966 10.9853 2.84879 10.9429 2.768ZM5.99991 8.6215L2.45391 3.5H9.54591L5.99991 8.6215Z" fill="#FFFAFA"/>
</svg>
