<svg width="15" height="13" viewBox="0 0 15 13" fill="none" xmlns="http://www.w3.org/2000/svg">
<path d="M1.00592 1.1286V10.1574C1.00592 10.4568 1.1119 10.7438 1.30054 10.9555C1.48919 11.1671 1.74505 11.286 2.01183 11.286H12.071C12.3378 11.286 12.5936 11.1671 12.7823 10.9555C12.9709 10.7438 13.0769 10.4568 13.0769 10.1574V1.1286H1.00592ZM1.00592 0H13.0769C13.3437 0 13.5996 0.118906 13.7882 0.330561C13.9768 0.542215 14.0828 0.82928 14.0828 1.1286V10.1574C14.0828 10.7561 13.8709 11.3302 13.4936 11.7535C13.1163 12.1768 12.6046 12.4146 12.071 12.4146H2.01183C1.47826 12.4146 0.966544 12.1768 0.589252 11.7535C0.21196 11.3302 0 10.7561 0 10.1574V1.1286C0 0.82928 0.10598 0.542215 0.294626 0.330561C0.483272 0.118906 0.73913 0 1.00592 0V0Z" fill="white"/>
<path d="M11.1672 2.97949L8.61446 6.27186C8.42858 6.51163 8.19941 6.70378 7.94233 6.83544C7.68525 6.96709 7.4062 7.03521 7.12388 7.03521C6.84156 7.03521 6.5625 6.96709 6.30542 6.83544C6.04834 6.70378 5.81918 6.51163 5.6333 6.27186L3.08057 2.97949H11.1672ZM3.95788 2.97949L6.12972 5.78098C6.25364 5.94087 6.40643 6.06901 6.57783 6.15681C6.74924 6.2446 6.93531 6.29002 7.12355 6.29002C7.31179 6.29002 7.49785 6.2446 7.66926 6.15681C7.84067 6.06901 7.99346 5.94087 8.11738 5.78098L10.2899 2.97949H3.95788Z" fill="white"/>
</svg>
