<svg width="18" height="17" viewBox="0 0 18 17" fill="none" xmlns="http://www.w3.org/2000/svg">
<path d="M0 8.5C0 10.7543 0.812753 12.9163 2.25946 14.5104C3.70617 16.1045 5.66833 17 7.71429 17C9.76286 17 11.7257 16.1122 13.2 14.5444L11.9143 13.1278C11.3745 13.7572 10.7232 14.2579 10.0008 14.5991C9.27844 14.9402 8.50023 15.1145 7.71429 15.1111C2.36571 15.1111 -0.308571 7.99 3.47143 3.825C7.25143 -0.34 13.7143 2.61611 13.7143 8.5H11.1429L14.5714 12.2778H14.6571L18 8.5H15.4286C15.4286 6.24566 14.6158 4.08365 13.1691 2.48959C11.7224 0.895533 9.76024 0 7.71429 0C5.66833 0 3.70617 0.895533 2.25946 2.48959C0.812753 4.08365 0 6.24566 0 8.5Z" fill="white"/>
</svg>
