<svg width="19" height="21" viewBox="0 0 19 21" fill="none" xmlns="http://www.w3.org/2000/svg">
<path d="M12.5261 16.6471C12.5261 17.5363 12.1949 18.3892 11.6054 19.0179C11.0159 19.6467 10.2164 20 9.38272 20C8.54904 20 7.74951 19.6467 7.16001 19.0179C6.57051 18.3892 6.23934 17.5363 6.23934 16.6471M10.1382 1.00337L8.60211 1.00002C5.09829 0.991079 2.05655 4.02772 2.03245 7.7059V11.9418C2.03245 12.8247 1.92767 13.6864 1.47607 14.4207L1.17535 14.9102C0.717467 15.6524 1.20993 16.6471 2.03245 16.6471H16.733C17.5555 16.6471 18.0469 15.6524 17.5901 14.9102L17.2894 14.4207C16.8388 13.6864 16.733 12.8236 16.733 11.9407V7.70701C16.6911 4.02772 13.642 1.01231 10.1382 1.00337V1.00337Z" stroke="black" stroke-linecap="round" stroke-linejoin="round"/>
</svg>
