<svg width="16" height="14" viewBox="0 0 16 14" fill="none" xmlns="http://www.w3.org/2000/svg">
<path d="M0.646465 2.95199e-05C0.475012 2.95199e-05 0.310581 0.0737793 0.189345 0.205054C0.0681094 0.33633 0 0.514377 0 0.700028C0 0.885679 0.0681094 1.06373 0.189345 1.195C0.310581 1.32628 0.475012 1.40003 0.646465 1.40003H2.08162L3.77794 8.75001C3.9221 9.37301 4.43733 9.80001 5.03014 9.80001H13.0916C13.6753 9.80001 14.1712 9.38001 14.3244 8.77101L16 2.10003H14.6463L13.0909 8.40001H5.02949L3.33382 1.05003C3.26377 0.748488 3.1023 0.481123 2.87527 0.290749C2.64823 0.100374 2.36876 -0.00199705 2.08162 2.95199e-05H0.646465ZM12.2828 9.80001C11.2194 9.80001 10.3434 10.7485 10.3434 11.9C10.3434 13.0515 11.2194 14 12.2828 14C13.3463 14 14.2222 13.0515 14.2222 11.9C14.2222 10.7485 13.3463 9.80001 12.2828 9.80001ZM6.46465 9.80001C5.40121 9.80001 4.52525 10.7485 4.52525 11.9C4.52525 13.0515 5.40121 14 6.46465 14C7.52808 14 8.40404 13.0515 8.40404 11.9C8.40404 10.7485 7.52808 9.80001 6.46465 9.80001ZM8.40404 2.95199e-05V3.50002H6.46465L9.05051 6.30002L11.6364 3.50002H9.69697V2.95199e-05H8.40404ZM6.46465 11.2C6.82925 11.2 7.11111 11.5052 7.11111 11.9C7.11111 12.2948 6.82925 12.6 6.46465 12.6C6.10004 12.6 5.81818 12.2948 5.81818 11.9C5.81818 11.5052 6.10004 11.2 6.46465 11.2ZM12.2828 11.2C12.6474 11.2 12.9293 11.5052 12.9293 11.9C12.9293 12.2948 12.6474 12.6 12.2828 12.6C11.9182 12.6 11.6364 12.2948 11.6364 11.9C11.6364 11.5052 11.9182 11.2 12.2828 11.2Z" fill="white"/>
</svg>
