<svg width="21" height="15" viewBox="0 0 21 15" fill="none" xmlns="http://www.w3.org/2000/svg">
<path d="M0.208259 14.9918C0.26162 15.0075 0.318312 14.9988 0.366045 14.9678C0.413778 14.9367 0.448706 14.8857 0.463259 14.8259C0.892426 13.0245 2.63659 12.5576 3.67909 12.2783C3.94034 12.2084 4.14659 12.1531 4.28076 12.0879C5.46826 11.5081 5.85534 10.5753 5.97118 9.89466C5.97806 9.85416 5.97533 9.81234 5.96326 9.77341C5.95119 9.73448 5.93021 9.69983 5.90243 9.67294C5.28409 9.07247 4.76243 8.17106 4.43326 7.13419C4.42397 7.10445 4.40937 7.07717 4.39034 7.05403C3.95493 6.52153 3.70493 5.95856 3.70493 5.50997C3.70493 5.24794 3.79284 5.07216 3.99076 4.9395C4.02041 4.91956 4.04518 4.89165 4.06285 4.85826C4.08053 4.82488 4.09055 4.78707 4.09201 4.74825C4.18409 2.36044 5.69576 0.480752 7.54993 0.468564L7.59451 0.471846C9.45784 0.500908 10.9599 2.42091 11.0137 4.84247C11.0144 4.87557 11.0214 4.90811 11.0342 4.93793C11.047 4.96775 11.0653 4.99417 11.0878 5.01544C11.2183 5.13966 11.2791 5.29716 11.2791 5.51091C11.2791 5.88638 11.1012 6.34809 10.7787 6.81028C10.7633 6.83252 10.7515 6.85757 10.7437 6.88435C10.4103 8.07309 9.81201 9.12263 9.10284 9.76481C9.07347 9.79151 9.05106 9.82665 9.038 9.86651C9.02494 9.90637 9.02172 9.94946 9.02868 9.99122C9.14451 10.6714 9.53159 11.6037 10.7191 12.1845C10.8595 12.2529 11.0774 12.3064 11.3537 12.3734C12.3858 12.6247 14.1128 13.0461 14.5366 14.8259C14.5437 14.8556 14.556 14.8835 14.5726 14.9079C14.5893 14.9323 14.6101 14.9528 14.6338 14.9682C14.6576 14.9835 14.6837 14.9935 14.7109 14.9975C14.738 15.0014 14.7656 14.9994 14.792 14.9914C14.8184 14.9834 14.8432 14.9696 14.8649 14.9508C14.8866 14.932 14.9048 14.9087 14.9185 14.882C14.9321 14.8553 14.941 14.8258 14.9445 14.7953C14.948 14.7648 14.9462 14.7338 14.9391 14.704C14.4495 12.6476 12.4928 12.1709 11.442 11.915C11.1983 11.8554 10.9878 11.8043 10.8853 11.7537C10.1103 11.375 9.63284 10.7979 9.46409 10.0358C10.1837 9.34059 10.7858 8.26809 11.1299 7.06528C11.4953 6.53091 11.6962 5.98059 11.6962 5.51044C11.6962 5.19684 11.6062 4.93528 11.4278 4.73091C11.3287 2.10403 9.66243 0.0354395 7.59451 0.0021582L7.53243 0.0012207C5.50201 0.0134082 3.82868 2.02763 3.68243 4.60903C3.42159 4.82466 3.28909 5.127 3.28909 5.51091C3.28909 6.06544 3.56784 6.72872 4.05576 7.33716C4.39284 8.37919 4.91534 9.29466 5.53743 9.93544C5.36951 10.7004 4.89159 11.2793 4.11493 11.6586C4.01451 11.7078 3.81451 11.7617 3.58284 11.8236C2.52409 12.1067 0.554093 12.634 0.0607591 14.705C0.0465118 14.765 0.0540469 14.829 0.0817073 14.8828C0.109368 14.9366 0.154889 14.9758 0.208259 14.9918Z" fill="black"/>
<path fill-rule="evenodd" clip-rule="evenodd" d="M15 7.5L15.625 6.66667L16.875 8.33333L19.375 5L20 5.83333L16.875 10L15 7.5Z" fill="#FDFEFF" stroke="black" stroke-linecap="round" stroke-linejoin="round"/>
</svg>
