<svg width="19" height="19" viewBox="0 0 19 19" fill="none" xmlns="http://www.w3.org/2000/svg">
<path d="M15.0418 2.375V5.54167M15.0418 16.625V8.70833M9.50016 2.375V11.875M9.50016 16.625V15.0417M3.9585 2.375V3.95833M3.9585 16.625V7.125" stroke="#222222" stroke-width="2" stroke-linecap="round"/>
<path d="M13.4583 7.12508C13.4583 7.99953 14.1672 8.70841 15.0417 8.70841C15.9161 8.70841 16.625 7.99953 16.625 7.12508C16.625 6.25063 15.9161 5.54175 15.0417 5.54175C14.1672 5.54175 13.4583 6.25063 13.4583 7.12508Z" stroke="#222222" stroke-width="2" stroke-linecap="round"/>
<path d="M7.91683 13.4583C7.91683 14.3328 8.62571 15.0417 9.50016 15.0417C10.3746 15.0417 11.0835 14.3328 11.0835 13.4583C11.0835 12.5839 10.3746 11.875 9.50016 11.875C8.62571 11.875 7.91683 12.5839 7.91683 13.4583Z" stroke="#222222" stroke-width="2" stroke-linecap="round"/>
<path d="M2.37484 5.54159C2.37484 6.41604 3.08372 7.12492 3.95817 7.12492C4.83262 7.12492 5.5415 6.41604 5.5415 5.54159C5.5415 4.66713 4.83262 3.95825 3.95817 3.95825C3.08372 3.95825 2.37484 4.66713 2.37484 5.54159Z" stroke="#222222" stroke-width="2" stroke-linecap="round"/>
</svg>
