<svg width="13" height="14" viewBox="0 0 13 14" fill="none" xmlns="http://www.w3.org/2000/svg">
<path d="M13 0H0V4.42105H0.65V12.5263C0.65 12.9172 0.786964 13.292 1.03076 13.5684C1.27456 13.8447 1.60522 14 1.95 14H11.05C11.3948 14 11.7254 13.8447 11.9692 13.5684C12.213 13.292 12.35 12.9172 12.35 12.5263V4.42105H13V0ZM1.3 1.47368H11.7V2.94737H1.3V1.47368ZM11.05 12.5263H1.95V4.42105H11.05V12.5263ZM4.55 5.89474H8.45C8.45 6.28558 8.31304 6.66042 8.06924 6.93679C7.82544 7.21316 7.49478 7.36842 7.15 7.36842H5.85C5.50522 7.36842 5.17456 7.21316 4.93076 6.93679C4.68696 6.66042 4.55 6.28558 4.55 5.89474Z" fill="white"/>
</svg>
