<svg width="21" height="21" viewBox="0 0 21 21" fill="none" xmlns="http://www.w3.org/2000/svg">
<path fill-rule="evenodd" clip-rule="evenodd" d="M14.3185 7.6363C14.3185 8.64894 13.9162 9.62011 13.2002 10.3362C12.4841 11.0522 11.513 11.4545 10.5003 11.4545C9.48767 11.4545 8.5165 11.0522 7.80045 10.3362C7.0844 9.62011 6.68213 8.64894 6.68213 7.6363C6.68213 6.62365 7.0844 5.65248 7.80045 4.93643C8.5165 4.22039 9.48767 3.81812 10.5003 3.81812C11.513 3.81812 12.4841 4.22039 13.2002 4.93643C13.9162 5.65248 14.3185 6.62365 14.3185 7.6363ZM12.4094 7.6363C12.4094 8.14262 12.2083 8.6282 11.8502 8.98623C11.4922 9.34425 11.0066 9.54539 10.5003 9.54539C9.99399 9.54539 9.5084 9.34425 9.15038 8.98623C8.79236 8.6282 8.59122 8.14262 8.59122 7.6363C8.59122 7.12997 8.79236 6.64439 9.15038 6.28637C9.5084 5.92834 9.99399 5.72721 10.5003 5.72721C11.0066 5.72721 11.4922 5.92834 11.8502 6.28637C12.2083 6.64439 12.4094 7.12997 12.4094 7.6363Z" fill="#171516"/>
<path fill-rule="evenodd" clip-rule="evenodd" d="M10.5 0C4.70114 0 0 4.70114 0 10.5C0 16.2989 4.70114 21 10.5 21C16.2989 21 21 16.2989 21 10.5C21 4.70114 16.2989 0 10.5 0ZM1.90909 10.5C1.90909 12.495 2.58968 14.3315 3.73036 15.7901C4.53145 14.7381 5.5649 13.8855 6.75 13.299C7.9351 12.7125 9.23976 12.4079 10.562 12.4091C11.8672 12.4079 13.1555 12.7045 14.3286 13.2766C15.5018 13.8486 16.5289 14.6808 17.3317 15.7099C18.1587 14.6252 18.7156 13.3591 18.9562 12.0164C19.1968 10.6737 19.1142 9.29301 18.7153 7.98858C18.3164 6.68414 17.6125 5.49345 16.6621 4.51504C15.7116 3.53662 14.5418 2.79859 13.2495 2.36203C11.9571 1.92547 10.5794 1.80292 9.23032 2.00452C7.88123 2.20612 6.59953 2.72608 5.49128 3.52137C4.38303 4.31666 3.48009 5.36442 2.85717 6.57796C2.23425 7.7915 1.90926 9.13592 1.90909 10.5ZM10.5 19.0909C8.52786 19.0939 6.61525 18.4154 5.08582 17.1704C5.70143 16.2891 6.52082 15.5695 7.47427 15.0729C8.42773 14.5763 9.48702 14.3174 10.562 14.3182C11.6237 14.3173 12.6701 14.5698 13.6146 15.0545C14.5591 15.5393 15.3743 16.2424 15.9925 17.1055C14.4511 18.3909 12.507 19.0937 10.5 19.0909Z" fill="#171516"/>
</svg>
