<svg width="16" height="17" viewBox="0 0 16 17" fill="none" xmlns="http://www.w3.org/2000/svg">
<path d="M0 4.25C0 3.68641 0.210714 3.14591 0.585786 2.7474C0.960859 2.34888 1.46957 2.125 2 2.125H14C14.5304 2.125 15.0391 2.34888 15.4142 2.7474C15.7893 3.14591 16 3.68641 16 4.25V12.75C16 13.3136 15.7893 13.8541 15.4142 14.2526C15.0391 14.6511 14.5304 14.875 14 14.875H2C1.46957 14.875 0.960859 14.6511 0.585786 14.2526C0.210714 13.8541 0 13.3136 0 12.75V4.25ZM2 3.1875C1.73478 3.1875 1.48043 3.29944 1.29289 3.4987C1.10536 3.69796 1 3.96821 1 4.25V5.3125H15V4.25C15 3.96821 14.8946 3.69796 14.7071 3.4987C14.5196 3.29944 14.2652 3.1875 14 3.1875H2ZM15 7.4375H1V12.75C1 13.0318 1.10536 13.302 1.29289 13.5013C1.48043 13.7006 1.73478 13.8125 2 13.8125H14C14.2652 13.8125 14.5196 13.7006 14.7071 13.5013C14.8946 13.302 15 13.0318 15 12.75V7.4375Z" fill="white"/>
<path d="M2 10.625C2 10.3432 2.10536 10.073 2.29289 9.8737C2.48043 9.67444 2.73478 9.5625 3 9.5625H4C4.26522 9.5625 4.51957 9.67444 4.70711 9.8737C4.89464 10.073 5 10.3432 5 10.625V11.6875C5 11.9693 4.89464 12.2395 4.70711 12.4388C4.51957 12.6381 4.26522 12.75 4 12.75H3C2.73478 12.75 2.48043 12.6381 2.29289 12.4388C2.10536 12.2395 2 11.9693 2 11.6875V10.625Z" fill="white"/>
</svg>
