<svg width="19" height="19" viewBox="0 0 19 19" fill="none" xmlns="http://www.w3.org/2000/svg">
<path d="M2.375 16.625V3.95833C2.375 3.53841 2.54181 3.13568 2.83875 2.83875C3.13568 2.54181 3.53841 2.375 3.95833 2.375H15.0417C15.4616 2.375 15.8643 2.54181 16.1613 2.83875C16.4582 3.13568 16.625 3.53841 16.625 3.95833V11.875C16.625 12.2949 16.4582 12.6977 16.1613 12.9946C15.8643 13.2915 15.4616 13.4583 15.0417 13.4583H7.125C6.78221 13.4583 6.44892 13.5692 6.175 13.775L2.375 16.625ZM3.95833 3.95833V13.4583L5.64775 12.1917C5.92155 11.9856 6.25507 11.8744 6.59775 11.875H15.0417V3.95833H3.95833Z" fill="#222222"/>
</svg>
