<svg width="14" height="14" viewBox="0 0 14 14" fill="none" xmlns="http://www.w3.org/2000/svg">
<path d="M2.47522 7.00078L0.0381659 0.734766C-0.131243 0.299088 0.293715 -0.117928 0.714367 0.030647L0.781126 0.0586395L13.7022 6.51844C13.7855 6.56005 13.8566 6.62256 13.9085 6.69987C13.9605 6.77717 13.9915 6.86663 13.9985 6.95949C14.0055 7.05235 13.9883 7.14545 13.9486 7.22968C13.9088 7.31391 13.8479 7.38639 13.7718 7.44004L13.7022 7.48167L0.781126 13.9415C0.362628 14.1503 -0.0924801 13.7656 0.0166309 13.3328L0.0381659 13.2646L2.47522 7.00078L0.0381659 0.734766L2.47522 7.00078ZM1.54777 1.64632L3.42132 6.46246H8.17842C8.30852 6.46246 8.43422 6.50957 8.53226 6.59508C8.63031 6.68058 8.69408 6.79869 8.71177 6.92756L8.7168 7.00078C8.71677 7.13097 8.66955 7.25674 8.5839 7.35479C8.49824 7.45284 8.37994 7.51654 8.25092 7.53407L8.17842 7.53909H3.41989L1.54706 12.3552L12.2579 7.00078L1.54706 1.64632H1.54777Z" fill="white"/>
</svg>
