<svg width="20" height="21" viewBox="0 0 20 21" fill="none" xmlns="http://www.w3.org/2000/svg">
<path d="M0 5.25C0 4.55381 0.263392 3.88613 0.732233 3.39384C1.20107 2.90156 1.83696 2.625 2.5 2.625H17.5C18.163 2.625 18.7989 2.90156 19.2678 3.39384C19.7366 3.88613 20 4.55381 20 5.25V15.75C20 16.4462 19.7366 17.1139 19.2678 17.6062C18.7989 18.0984 18.163 18.375 17.5 18.375H2.5C1.83696 18.375 1.20107 18.0984 0.732233 17.6062C0.263392 17.1139 0 16.4462 0 15.75V5.25ZM2.5 3.9375C2.16848 3.9375 1.85054 4.07578 1.61612 4.32192C1.3817 4.56806 1.25 4.9019 1.25 5.25V6.5625H18.75V5.25C18.75 4.9019 18.6183 4.56806 18.3839 4.32192C18.1495 4.07578 17.8315 3.9375 17.5 3.9375H2.5ZM18.75 9.1875H1.25V15.75C1.25 16.0981 1.3817 16.4319 1.61612 16.6781C1.85054 16.9242 2.16848 17.0625 2.5 17.0625H17.5C17.8315 17.0625 18.1495 16.9242 18.3839 16.6781C18.6183 16.4319 18.75 16.0981 18.75 15.75V9.1875Z" fill="white"/>
<path d="M2.5 13.125C2.5 12.7769 2.6317 12.4431 2.86612 12.1969C3.10054 11.9508 3.41848 11.8125 3.75 11.8125H5C5.33152 11.8125 5.64946 11.9508 5.88388 12.1969C6.1183 12.4431 6.25 12.7769 6.25 13.125V14.4375C6.25 14.7856 6.1183 15.1194 5.88388 15.3656C5.64946 15.6117 5.33152 15.75 5 15.75H3.75C3.41848 15.75 3.10054 15.6117 2.86612 15.3656C2.6317 15.1194 2.5 14.7856 2.5 14.4375V13.125Z" fill="white"/>
</svg>
